<?xml version="1.0" encoding="UTF-8"?>
<svg viewBox="0 0 267 267" xmlns="http://www.w3.org/2000/svg" xmlns:xlink="http://www.w3.org/1999/xlink">
 <defs>
  <filter id="f">
   <feGaussianBlur stdDeviation="5.2078"/>
  </filter>
  <filter id="e">
   <feGaussianBlur stdDeviation="3.6788"/>
  </filter>
  <linearGradient id="a">
   <stop stop-color="#00d400" offset="0"/>
   <stop stop-color="#008000" offset="1"/>
  </linearGradient>
  <linearGradient id="c" x1="345.71" x2="348.57" y1="208.99" y2="469.51" gradientUnits="userSpaceOnUse">
   <stop stop-color="#fff" offset="0"/>
   <stop stop-color="#f2f2f2" offset="1"/>
  </linearGradient>
  <linearGradient id="d" x2="0" y1="450.48" y2="221.04" gradientUnits="userSpaceOnUse" xlink:href="#a"/>
  <linearGradient id="b" x1="351.26" x2="352.65" y1="427.03" y2="240.43" gradientUnits="userSpaceOnUse" xlink:href="#a"/>
 </defs>
 <g transform="translate(-221.33 -202.5)">
  <path transform="translate(4.7877 -.60613)" d="m350 214.03c-67.879 0-122.62 54.746-122.62 122.62s54.746 122.62 122.62 122.62 122.62-54.746 122.62-122.62-54.746-122.62-122.62-122.62z" filter="url(#e)"/>
  <path transform="translate(4.7877 -.60613)" d="m350 214.03c-67.879 0-122.62 54.746-122.62 122.62s54.746 122.62 122.62 122.62 122.62-54.746 122.62-122.62-54.746-122.62-122.62-122.62z" fill="url(#c)" stroke="#000"/>
  <path transform="translate(4.7877 -.60613)" d="m350 221.78c-63.685 0-114.88 51.19-114.88 114.88s51.19 114.88 114.88 114.88 114.88-51.19 114.88-114.88-51.19-114.88-114.88-114.88z" fill="url(#d)"/>
  <path transform="matrix(1 0 0 -1 4.7877 672.71)" d="m350 236.56c-55.698 0-100.09 44.396-100.09 100.09s44.396 100.09 100.09 100.09 100.09-44.396 100.09-100.09-44.396-100.09-100.09-100.09z" filter="url(#f)"/>
  <path transform="matrix(1 0 0 -1 4.7877 672.71)" d="m350 236c-56.019 0-100.66 44.638-100.66 100.66s44.638 100.66 100.66 100.66 100.66-44.638 100.66-100.66-44.638-100.66-100.66-100.66z" fill="url(#b)"/>
  <path d="m281.06 338.37 47.461 53.009 100-104.54" fill="none" stroke="#fff" stroke-width="20"/>
 </g>
</svg>
